<svg fill="#070707" height="100%" width="100%" version="1.1" id="Layer_1" xmlns="http://www.w3.org/2000/svg" xmlns:xlink="http://www.w3.org/1999/xlink" 
	 viewBox="0 0 512 512" xml:space="preserve">
<g>
	<g>
		<g>
			<path d="M256,265.929c-93.28,0-169.169,75.889-169.169,169.169v58.468c0,10.181,8.254,18.435,18.435,18.435h301.468
				c10.181,0,18.435-8.254,18.435-18.435v-58.468C425.169,341.819,349.28,265.929,256,265.929z M388.299,475.13H274.435v-92.057
				c0-10.181-8.254-18.435-18.435-18.435s-18.435,8.254-18.435,18.435v92.057H123.701v-40.033
				c0-66.695,49.61-122.01,113.864-131.009v23.61c0,10.181,8.254,18.435,18.435,18.435s18.435-8.254,18.435-18.435v-23.61
				c64.255,8.997,113.864,64.314,113.864,131.009V475.13z"/>
			<path d="M127.077,131.349h15.547c-3.698,65.527,48.612,120.032,113.375,120.032c64.75,0,117.072-54.492,113.375-120.032h15.547
				c10.181,0,18.435-8.254,18.435-18.435s-8.254-18.435-18.435-18.435h-19.534l-20.991-80.68
				C341.697,3.423,330.72-2.484,320.565,1.007L256,23.195L191.435,1.007c-10.14-3.487-21.129,2.4-23.833,12.793l-20.991,80.68
				h-19.535c-10.181,0-18.435,8.254-18.435,18.435S116.896,131.349,127.077,131.349z M198.273,42.342l51.735,17.779
				c3.882,1.335,8.099,1.335,11.983,0l51.735-17.779l13.564,52.135H184.709L198.273,42.342z M179.567,131.35h152.865
				c3.748,45.026-31.87,83.163-76.432,83.163C211.436,214.513,175.819,176.375,179.567,131.35z"/>
		</g>
	</g>
</g>
</svg>